HIERARCHY
ROOT Hips
{
	OFFSET 0.000000 0.000000 0.000000
	CHANNELS 6 Xposition Yposition Zposition Zrotation Yrotation Xrotation
	JOINT LHipJoint
	{
		OFFSET 0.000000 0.000000 0.000000
		CHANNELS 3 Zrotation Yrotation Xrotation
		JOINT LeftUpLeg
		{
			OFFSET 1.363060 -1.794630 0.839290
			CHANNELS 3 Zrotation Yrotation Xrotation
			JOINT LeftLeg
			{
				OFFSET 2.448110 -6.726130 0.000000
				CHANNELS 3 Zrotation Yrotation Xrotation
				JOINT LeftFoot
				{
					OFFSET 2.562200 -7.039590 0.000000
					CHANNELS 3 Zrotation Yrotation Xrotation
					JOINT LeftToeBase
					{
						OFFSET 0.157640 -0.433110 2.322550
						CHANNELS 3 Zrotation Yrotation Xrotation
						End Site
						{
							OFFSET 0.000000 0.000000 0.000000
						}
					}
				}
			}
		}
	}
	JOINT RHipJoint
	{
		OFFSET 0.000000 0.000000 0.000000
		CHANNELS 3 Zrotation Yrotation Xrotation
		JOINT RightUpLeg
		{
			OFFSET -1.305520 -1.794630 0.839290
			CHANNELS 3 Zrotation Yrotation Xrotation
			JOINT RightLeg
			{
				OFFSET -2.542530 -6.985550 0.000000
				CHANNELS 3 Zrotation Yrotation Xrotation
				JOINT RightFoot
				{
					OFFSET -2.568260 -7.056230 0.000000
					CHANNELS 3 Zrotation Yrotation Xrotation
					JOINT RightToeBase
					{
						OFFSET -0.164730 -0.452590 2.363150
						CHANNELS 3 Zrotation Yrotation Xrotation
						End Site
						{
							OFFSET 0.000000 0.000000 0.000000
						}
					}
				}
			}
		}
	}
	JOINT LowerBack
	{
		OFFSET 0.000000 0.000000 0.000000
		CHANNELS 3 Zrotation Yrotation Xrotation
		JOINT Spine
		{
			OFFSET 0.028270 2.035590 -0.193380
			CHANNELS 3 Zrotation Yrotation Xrotation
			JOINT Spine1
			{
				OFFSET 0.056720 2.048850 -0.042750
				CHANNELS 3 Zrotation Yrotation Xrotation
				JOINT Neck
				{
					OFFSET 0.000000 0.000000 0.000000
					CHANNELS 3 Zrotation Yrotation Xrotation
					JOINT Neck1
					{
						OFFSET -0.054170 1.746240 0.172020
						CHANNELS 3 Zrotation Yrotation Xrotation
						JOINT Head
						{
							OFFSET 0.104070 1.761360 -0.123970
							CHANNELS 3 Zrotation Yrotation Xrotation
							End Site
							{
								OFFSET 0.000000 0.000000 0.000000
							}
						}
					}
				}
				JOINT LeftShoulder
				{
					OFFSET 0.000000 0.000000 0.000000
					CHANNELS 3 Zrotation Yrotation Xrotation
					JOINT LeftArm
					{
						OFFSET 3.362410 1.200890 -0.311210
						CHANNELS 3 Zrotation Yrotation Xrotation
						JOINT LeftForeArm
						{
							OFFSET 4.983000 -0.000000 -0.000000
							CHANNELS 3 Zrotation Yrotation Xrotation
							JOINT LeftHand
							{
								OFFSET 3.483560 -0.000000 -0.000000
								CHANNELS 3 Zrotation Yrotation Xrotation
								JOINT LeftFingerBase
								{
									OFFSET 0.000000 0.000000 0.000000
									CHANNELS 3 Zrotation Yrotation Xrotation
									JOINT LeftHandIndex1
									{
										OFFSET 0.715260 -0.000000 -0.000000
										CHANNELS 3 Zrotation Yrotation Xrotation
										End Site
										{
											OFFSET 0.000000 0.000000 0.000000
										}
									}
								}
								JOINT LThumb
								{
									OFFSET 0.000000 0.000000 0.000000
									CHANNELS 3 Zrotation Yrotation Xrotation
									End Site
									{
										OFFSET 0.000000 0.000000 0.000000
									}
								}
							}
						}
					}
				}
				JOINT RightShoulder
				{
					OFFSET 0.000000 0.000000 0.000000
					CHANNELS 3 Zrotation Yrotation Xrotation
					JOINT RightArm
					{
						OFFSET -3.136600 1.374050 -0.404650
						CHANNELS 3 Zrotation Yrotation Xrotation
						JOINT RightForeArm
						{
							OFFSET -5.241900 -0.000000 -0.000000
							CHANNELS 3 Zrotation Yrotation Xrotation
							JOINT RightHand
							{
								OFFSET -3.444170 -0.000000 -0.000000
								CHANNELS 3 Zrotation Yrotation Xrotation
								JOINT RightFingerBase
								{
									OFFSET 0.000000 0.000000 0.000000
									CHANNELS 3 Zrotation Yrotation Xrotation
									JOINT RightHandIndex1
									{
										OFFSET -0.622530 -0.000000 -0.000000
										CHANNELS 3 Zrotation Yrotation Xrotation
										End Site
										{
											OFFSET 0.000000 0.000000 0.000000
										}
									}
								}
								JOINT RThumb
								{
									OFFSET 0.000000 0.000000 0.000000
									CHANNELS 3 Zrotation Yrotation Xrotation
									End Site
									{
										OFFSET 0.000000 0.000000 0.000000
									}
								}
							}
						}
					}
				}
			}
		}
	}
}
MOTION
Frames: 5
Frame Time: 0.008333
0.001536 0.011374 0.091445 -0.086838 -0.096760 0.083189 -0.066915 -0.011844 -0.001912 0.339987 -0.182144 0.287597 -0.342772 -0.364980 -1.187551 0.247167 -0.812373 -0.655851 -0.171885 1.671797 4.628749 0.032645 -0.024159 0.046023 0.006541 -0.097282 0.383540 0.074242 0.137267 -0.400582 0.020753 -0.044817 0.112610 0.000960 0.091224 -0.250626 0.069245 0.055616 0.098958 0.001497 0.090153 -0.107155 -0.056396 0.038428 -0.157970 0.046771 0.035238 0.274430 0.005901 0.001887 -0.121993 -0.004180 0.001582 -0.089755 0.011097 -0.001769 -0.001916 -0.013556 0.373106 0.022004 0.018362 -0.035829 -0.007128 0.005125 -0.008436 -0.017518 -0.072501 0.211330 0.080718 0.000000 0.000000 0.000000 -0.106079 0.230743 -0.009377 -0.006523 -0.009351 -0.010925 -0.054222 -0.039117 0.319122 -0.231111 0.324574 -0.107382 0.005064 0.020820 -0.103606 -0.308174 -0.184099 -0.059197 -0.000000 0.000000 0.000000 -0.214079 -0.166575 -0.205550
0.154782 1.002711 1.879994 0.386209 -0.027007 -1.039512 -0.064953 -0.271783 -0.141252 0.405640 -0.278664 -3.763418 -0.345644 -0.347471 -0.473764 0.075449 -1.249384 0.695866 -0.007039 3.332358 10.219213 3.485577 0.948216 2.863380 9.102242 4.308379 6.780719 1.826012 3.256681 5.495204 1.285047 4.131212 -2.542677 0.289151 0.606485 -1.396441 0.064084 -0.193821 -0.755087 -0.525587 -0.782272 -0.691882 -0.425336 -0.030928 -2.019869 -0.426844 -0.733942 -0.786752 -0.123445 -0.715788 0.632966 0.790765 0.668337 1.795521 2.166932 0.374667 -0.271363 -1.323283 0.007033 -3.548718 0.931042 1.793463 0.606111 -0.029950 0.314709 -1.478965 -2.650496 -1.381500 -1.882904 -0.631412 0.000000 0.000000 6.074196 -10.153419 -3.308875 -1.209188 -0.951498 -0.505550 -4.112409 0.272907 1.978041 2.538585 2.795991 2.699089 0.207339 0.480379 3.177436 20.058945 5.661096 15.299873 0.590418 0.000000 0.000000 -0.508201 5.914532 31.059422
0.489802 2.472151 3.269432 1.296745 -0.137914 -3.833691 -0.120442 -0.800037 -1.134920 -1.611320 -1.552120 -11.218946 -0.893367 -3.102489 -11.364832 -1.553697 -5.954529 -4.916280 -1.238651 -1.151131 -3.052661 -1.563780 -1.461736 -0.462294 -1.263988 0.248901 1.561569 1.555867 2.758153 1.809881 0.272150 -3.218064 -16.976902 -0.730662 -1.568296 -10.556057 -1.419417 -0.917264 -2.818721 -1.066107 -1.806854 -1.426335 -1.335666 -0.485900 -4.963462 -1.403667 -1.614734 -0.997622 0.314444 -1.497678 2.244205 2.645275 1.949293 4.551426 4.373032 1.338665 -0.298109 11.010086 5.105895 8.686493 6.443299 9.510427 2.658139 0.398181 1.997481 19.406975 5.865774 16.846588 4.000807 0.427276 0.000000 0.000000 34.125446 -5.942119 2.905985 -0.317668 -0.146012 -0.564888 0.367502 4.426553 7.612266 7.864654 5.818119 6.019157 0.432542 1.088311 8.602430 51.044128 11.861790 28.290108 0.989675 0.000000 0.000000 -22.746750 -3.818662 28.092957
1.310353 4.080970 5.142627 2.133290 -1.055525 -8.625463 -1.745560 -2.144964 -2.750713 -4.996366 -3.674925 -22.570210 -2.091115 -6.325794 -22.105568 -2.910892 -10.357443 -11.751968 -2.697558 -6.388915 -18.067392 -7.710528 -4.334426 -4.375149 -14.441817 -5.053648 -6.626120 0.116615 0.446882 -7.922083 -2.058404 -14.768874 -37.005772 -2.935940 -7.205874 -27.663929 -4.973620 -2.722169 -7.738193 -2.833034 -4.381007 -5.182207 -4.140875 -1.707089 -11.205181 -4.341980 -3.636067 -3.680640 -0.329498 -3.929261 1.126865 2.179865 1.877536 4.702970 2.978941 0.290185 -0.660918 10.081856 5.502468 4.331527 7.403750 11.554420 3.265489 0.454573 2.990120 27.437395 6.802237 21.442368 2.405540 0.089430 0.000000 0.000000 32.655533 -33.390453 -21.752535 -2.661313 -1.553149 -1.719259 -9.505615 1.957435 2.875733 2.931199 -0.979106 1.741777 -0.335064 0.553311 3.099919 8.920414 -10.078812 -9.269718 -0.029925 0.000000 0.000000 -95.028488 -42.838932 -29.043457
1.935295 3.363314 -3.604285 1.865867 -3.812656 -13.899653 -4.438120 -4.813769 -5.357194 -9.540089 -6.147556 -34.875381 -3.014309 -8.433126 -31.826452 -3.996816 -12.301548 -17.495564 -3.812358 -10.078855 -27.573788 -12.308662 -6.426743 -7.775502 -27.110027 -10.892341 -15.999378 -2.292712 -4.499460 -24.758871 -5.984941 -32.335766 -64.843491 -6.320144 -15.897348 -54.136505 -10.905850 -5.703413 -16.185863 -4.988809 -8.211483 -10.986445 -8.248646 -3.394326 -19.711340 -8.008112 -6.786915 -8.959319 -1.793811 -7.338135 -2.062584 -1.040774 0.100194 0.945964 -2.173870 -3.902998 -1.768645 -8.546051 -1.919655 -14.175074 4.510034 5.834404 2.027299 -0.159853 2.353396 10.093170 -3.558875 8.960352 -4.451773 -1.140568 0.000000 0.000000 13.907661 -65.165756 -46.334618 -5.336947 -3.674262 -3.254398 -24.281563 -5.119598 -6.366163 -9.049738 -13.108144 -7.911472 -1.737381 -0.223252 -3.687455 -23.867558 -30.725344 -29.954725 -0.269370 0.000000 0.000000 -107.716469 -52.252151 -45.970230
